<svg xmlns="http://www.w3.org/2000/svg" id="Layer_2" data-name="Layer 2" viewBox="0 0 331.62 43.77"><defs><style>      .cls-1 {        fill: #fff;      }      .cls-1, .cls-2 {        stroke-width: 0px;      }      .cls-2 {        fill: #f5891f;      }    </style></defs><g id="Layer_1-2" data-name="Layer 1"><path class="cls-1" d="M46.5,4.4l-9.27,34.97h-9.02l-4.89-19.29-4.62,19.29h-9.4L0,4.4h10.1l4.89,20.13,4.77-20.13h8.43l5.19,20.17,4.9-20.17h8.22Z"></path><path class="cls-1" d="M97.86,39.37h-11.9l-5.11-13.37h-3.39v13.37h-10.73V4.4h18.27c4.03,0,7.16.94,9.39,2.83,2.23,1.89,3.34,4.38,3.34,7.47,0,2.02-.41,3.8-1.23,5.34-.82,1.55-2.48,2.91-4.97,4.09l6.33,15.24ZM77.47,18.52h4.59c1.35,0,2.43-.28,3.25-.85.82-.56,1.23-1.39,1.23-2.48,0-2.24-1.37-3.36-4.12-3.36h-4.94v6.69Z"></path><path class="cls-1" d="M128.91,31.02v8.35h-26.31V4.4h26.31v8.07h-15.78v5.07h12.76v7.76h-12.76v5.71h15.78Z"></path><path class="cls-1" d="M133.66,39.37V4.4h13.53c5.87,0,10.27,1.74,13.19,5.23,2.92,3.48,4.38,7.51,4.38,12.09,0,5.23-1.57,9.47-4.7,12.74-3.13,3.27-7.2,4.91-12.21,4.91h-14.19ZM144.39,31.33h2.79c1.78,0,3.27-.86,4.5-2.59,1.22-1.72,1.83-4.07,1.83-7.04,0-2.54-.54-4.74-1.63-6.58-1.08-1.84-2.65-2.77-4.7-2.77h-2.79v18.98Z"></path><polygon class="cls-1" points="61.97 39.37 61.97 4.41 51.24 4.41 51.24 28.63 61.97 39.37"></polygon><path class="cls-2" d="M205.98,0h-32.38v43.77h41.07V8.17l-8.69-8.17ZM206.99,38.38h-25.44v-7.68l5.69-3.99c.83-.57,2.39-1.8,4.67-3.68,2.28-1.88,3.77-3.33,4.46-4.34.69-1.01,1.04-2.07,1.04-3.18s-.3-1.91-.91-2.56c-.61-.64-1.4-.97-2.38-.97-2.46,0-3.83,1.92-4.12,5.77l-8.44-1.64c.62-3.93,2.16-6.85,4.61-8.77,2.46-1.92,5.35-2.87,8.7-2.87,3.62,0,6.58.97,8.87,2.91,2.29,1.94,3.44,4.53,3.44,7.76,0,2.15-.62,4.2-1.87,6.14-1.25,1.94-4.9,4.91-10.95,8.91h13.02l-.37,8.2Z"></path><g><path class="cls-1" d="M300.47,39.44h-11.95l-5.13-13.43h-3.4v13.43h-10.78V4.33h18.34c4.05,0,7.19.95,9.43,2.84,2.24,1.9,3.36,4.39,3.36,7.5,0,2.02-.41,3.81-1.23,5.36-.82,1.55-2.49,2.92-4.99,4.1l6.35,15.31ZM280,18.5h4.6c1.35,0,2.44-.28,3.27-.85.82-.57,1.23-1.4,1.23-2.49,0-2.25-1.38-3.37-4.14-3.37h-4.96v6.71Z"></path><path class="cls-1" d="M331.62,31.06v8.39h-26.42V4.33h26.42v8.1h-15.85v5.09h12.81v7.79h-12.81v5.74h15.85Z"></path><polygon class="cls-1" points="264.45 39.43 264.45 4.33 253.67 4.33 253.67 28.66 264.45 39.43"></polygon><polygon class="cls-1" points="223.69 4.33 232.05 12.69 234 12.69 248.9 12.69 248.9 4.33 223.69 4.33"></polygon><polygon class="cls-1" points="237.53 18.4 234 18.4 223.51 18.4 223.51 39.44 234 39.44 234 26.3 245.43 26.3 237.53 18.4"></polygon></g></g></svg>