<svg xmlns="http://www.w3.org/2000/svg" fill-rule="evenodd" stroke-linejoin="round" stroke-miterlimit="2" clip-rule="evenodd" viewBox="0 0 815 119" class="h-8 w-32 sm:w-48 block"><path fill="none" d="M0 0h815v119H0z"></path><clipPath id="a"><path d="M0 0h815v119H0z"></path></clipPath><g fill="#ffffff05" fill-rule="nonzero" clip-path="url(#a)"><path d="M104.708 2.512h1.204v67.915h-1.204zM133.247 2.512h1.204v67.915h-1.204zM109.927 2.512h19.306v67.912h-19.306zM143.264 2.515h1.204v67.911h-1.204zM216.361 70.432l-43.935-40.611v40.606h-1.204V27.068l46.918 43.364h-1.779zM256.781 2.52h1.203v67.901h-1.203zM230.029 44.917L184.194 2.512h1.793l42.838 39.651V2.52h1.204v42.397z"></path><path d="M234.044 55.002V2.521h18.722v67.904h-28.327l-57.232-53.449v53.449h-18.724V2.515l29.286-.003 56.275 52.49zM366.508 63.01l-.018-.092c5.266-5.267 7.614-12.552 7.614-23.619V27.468h-63.467v-1.204h64.671v13.035c0 14.637-3.291 18.2-8.8 23.711z"></path><path d="M310.635 48.414h38.189v1.204h-38.189z"></path><path d="M290.372 22.018c-3.395 3.396-5.142 8.247-5.142 14.456 0 6.401 1.649 10.961 4.755 14.163 4.266 4.266 13.386 7.468 30.846 7.468 14.26 0 25.029-1.456 29.394-5.819 2.426-2.426 2.426-6.015 2.328-7.567h-41.906V31.138h59.756v9.022c0 10.864-2.328 17.169-6.791 21.631-8.147 8.148-21.341 11.157-42.781 11.157-26.773 0-39.577-5.336-46.174-12.03-6.014-6.015-9.119-14.066-9.119-24.444 0-10.38 3.105-18.432 9.119-24.446C281.157 5.529 294.251 0 321.704 0c21.537 0 35.02 2.909 43.558 5.625v16.297c-10.09-3.88-24.153-6.789-43.945-6.789-17.946 0-27.162 3.103-30.945 6.885zM457.799 49.742c-4.204-1.068-7.407-.601-25.657-1.301-26.598-1.019-41.802-3.771-44.671-10.776l.02-.076c6.316 6.315 18.426 8.93 44.685 9.648 16.721.485 24.397 1.229 25.666 2.485 0 0-.04.065-.043.02zM476.833 34.389c-6.095-6.094-17.768-8.467-44.61-9.068-13.882-.306-23.504-.783-25.357-2.124-.321-.307-.413-.609-.413-1.179 0 0 .151 1.877 25.794 2.099 27.208.235 38.615 3.248 44.62 10.186l-.034.086z"></path><path d="M390.546 9.701c5.625-5.628 16.878-8.441 39.773-8.441 17.071 0 34.241 2.716 43.262 6.305v15.91c-10.281-4.366-28.227-7.566-43.069-7.566-16.395 0-23.477.97-25.61 3.104-.776.776-1.26 1.745-1.26 3.005 0 1.36.386 2.33 1.163 3.106 2.036 2.037 9.701 2.62 27.356 3.006 25.997.583 37.25 2.813 42.683 8.247 2.813 2.813 4.365 7.371 4.365 12.221 0 5.238-1.067 10.284-4.851 14.066-5.043 5.045-16.103 9.021-42.39 9.021-19.402 0-38.123-3.006-48.504-7.372V48.404c9.991 4.463 31.722 8.635 48.504 8.635 14.647 0 24.929-.487 27.743-3.299.97-.971 1.163-2.037 1.163-3.103 0-1.262-.29-2.136-1.066-2.912-1.553-1.551-4.172-2.619-27.551-3.297-24.833-.68-37.056-3.104-42.778-8.827-2.62-2.619-4.172-6.888-4.172-11.836 0-5.14.97-9.798 5.239-14.064zM487.552 2.505h1.204v67.916h-1.204zM579.129 50.815h-63.071V2.519h1.205v47.092h61.866v1.204z"></path><path d="M579.162 54.806v15.619h-86.367V2.521h19.303v52.285h67.064zM584.343 2.512h1.203V70.42h-1.203zM682.403 28.906V43.36h-72.666v11.642h72.464v15.423h-91.38V2.512l91.38.001v15.432h-72.464v10.961h72.666zM766.219 70.42h-1.204V44.826l.205-.18 47.97-42.134H815l-48.781 42.861V70.42zM751.714 24.88L726.545 2.512h1.806l23.361 20.756 23.233-20.756h1.86L751.714 24.88z"></path><path d="M782.925 2.514l24.776.004L761 43.555v26.87h-19.305V43.748l-46.61-41.235 26.132-.001 30.858 27.657 30.85-27.655zM0 2.512h1.204v67.901H0zM54.306 70.427l-24.562-16.25v16.236H28.54V51.935l27.891 18.478-2.125.014zM100.407 70.427L48.131 36.094 99.668 2.512h2.137L50.328 36.098l52.283 34.329h-2.204zM28.54 21.241V2.511h1.204v16.498L54.862 2.513l2.18.003L28.54 21.241z"></path><path d="M24.522 28.838L64.804 2.513l28.379.002-51.38 33.569 51.704 34.051v.29H64.211L23.954 43.942h.57v26.483H5.22V2.513h19.304l-.002 26.325zM170.861 106.252h11.47c2.888 0 4.133-.397 4.768-1.033.425-.425.663-.98.663-1.882 0-.847-.238-1.483-.716-1.96-.635-.635-1.721-.953-4.689-.953h-11.496v5.828zm11.418-9.167c5.192 0 6.834.743 8.157 2.067 1.008 1.007 1.404 2.517 1.404 4.08 0 1.562-.396 2.993-1.509 4.105-1.006 1.008-2.543 1.856-6.093 2.094l9.961 6.119v.08H188l-9.802-6.146h-7.337v6.146h-4.107V97.085h15.525zM230.088 104.609v3.285h-19.629v4.397h20v3.339h-24.081V97.085h24.081v3.339h-20v4.185h19.629zM257.288 93.722h3.733v25.246h-3.733zM308.356 104.609v3.285h-19.629v4.397h20v3.339h-24.08V97.085h24.08v3.339h-20v4.185h19.629zM345.598 112.054V97.085h4.078v18.545h-5.748l-16.954-15.233v15.233h-4.081V97.085h6.042l16.663 14.969zM391.632 105.351v2.119c0 2.597-.636 4.266-1.987 5.617-1.668 1.669-4.927 2.966-11.523 2.966-7.524 0-10.544-1.563-12.293-3.311-1.51-1.51-2.41-3.655-2.41-6.384 0-2.543.795-4.795 2.41-6.411 1.749-1.748 5.247-3.285 12.293-3.285 5.616 0 9.96.981 12.212 2.119v3.762c-2.676-1.457-7.099-2.57-12.212-2.57-5.139 0-7.868.927-9.086 2.146-.981.98-1.485 2.332-1.485 4.239 0 2.013.557 3.337 1.485 4.264 1.218 1.219 3.469 2.226 9.086 2.226 4.45 0 7.258-.794 8.318-1.854.715-.716.981-1.43.981-2.357h-11.392v-3.286h15.603zM405.533 97.085h4.107v18.544h-4.107zM447.491 112.054V97.085h4.08v18.545h-5.748l-16.954-15.233v15.233h-4.08V97.085h6.04l16.662 14.969zM490.217 104.609v3.285h-19.631v4.397h20.001v3.339h-24.08V97.085h24.08v3.339h-20.001v4.185h19.631zM528.464 104.609v3.285h-19.631v4.397h20v3.339h-24.079V97.085h24.079v3.339h-20v4.185h19.631zM547.106 106.252h11.47c2.888 0 4.133-.397 4.769-1.033.424-.425.661-.98.661-1.882 0-.847-.237-1.483-.714-1.96-.636-.635-1.722-.953-4.689-.953h-11.497v5.828zm11.417-9.167c5.193 0 6.835.743 8.16 2.067 1.007 1.007 1.404 2.517 1.404 4.08 0 1.562-.397 2.993-1.51 4.105-1.007 1.008-2.543 1.856-6.093 2.094l9.96 6.119v.08h-6.199l-9.801-6.146h-7.338v6.146H543V97.085h15.523zM606.335 104.609v3.285h-19.631v4.397h20v3.339h-24.08V97.085h24.08v3.339h-20v4.185h19.631zM634.356 112.291c4.344 0 6.595-.795 7.63-1.827.952-.953 1.429-2.252 1.429-4.106s-.477-3.152-1.429-4.107c-1.035-1.032-3.286-1.827-7.63-1.827h-9.379v11.867h9.379zm10.807.399c-1.456 1.456-4.397 2.94-10.729 2.94h-13.562V97.085h13.562c6.332 0 9.273 1.485 10.729 2.942 1.67 1.669 2.384 3.788 2.384 6.331 0 2.543-.714 4.662-2.384 6.332zM689.607 2.512l-1.811.001v.001l-.82-.001.128 20.254H614.88v1.204h73.436l-.134-21.116 48.294 42.701V70.42h1.205V45.015L689.607 2.512z"></path><path d="M688.276 70.411h-1.203V49.745l-72.222.082-.003-1.204 73.428-.083v21.871z"></path></g></svg>