<?xml version="1.0" encoding="UTF-8"?>
<svg id="Layer_2" data-name="Layer 2" xmlns="http://www.w3.org/2000/svg" viewBox="0 0 182.89 73.64">
  <defs>
    <style>
      .cls-1 {
        fill: #fff;
      }

      .cls-1, .cls-2 {
        stroke-width: 0px;
      }

      .cls-2 {
        fill: #f5891f;
      }
    </style>
  </defs>
  <g id="Layer_1-2" data-name="Layer 1">
    <g>
      <path class="cls-1" d="M31.49,0l-6.28,23.68h-6.11l-3.31-13.06-3.13,13.06h-6.37L0,0h6.84l3.31,13.63L13.38,0h5.71l3.52,13.66L25.93,0h5.56Z"/>
      <path class="cls-1" d="M66.28,23.68h-8.06l-3.46-9.06h-2.29v9.06h-7.27V0h12.37c2.73,0,4.85.64,6.36,1.92,1.51,1.28,2.26,2.96,2.26,5.06,0,1.36-.28,2.57-.83,3.62-.56,1.05-1.68,1.97-3.37,2.77l4.29,10.32ZM52.47,9.56h3.11c.91,0,1.65-.19,2.2-.57.56-.38.83-.94.83-1.68,0-1.52-.93-2.27-2.79-2.27h-3.35v4.53Z"/>
      <path class="cls-1" d="M87.31,18.03v5.66h-17.82V0h17.82v5.47h-10.69v3.44h8.64v5.26h-8.64v3.87h10.69Z"/>
      <path class="cls-1" d="M90.52,23.68V0h9.16c3.98,0,6.96,1.18,8.94,3.54,1.98,2.36,2.97,5.09,2.97,8.19,0,3.54-1.06,6.42-3.18,8.63-2.12,2.22-4.88,3.32-8.27,3.32h-9.61ZM97.79,18.23h1.89c1.2,0,2.22-.58,3.04-1.75.83-1.17,1.24-2.76,1.24-4.77,0-1.72-.37-3.21-1.1-4.46-.73-1.25-1.8-1.87-3.18-1.87h-1.89v12.86Z"/>
      <polygon class="cls-1" points="41.97 23.68 41.97 0 34.7 0 34.7 16.41 41.97 23.68"/>
      <path class="cls-1" d="M144.06,73.64h-14.9l-6.39-16.74h-4.24v16.74h-13.44V29.87h22.86c5.04,0,8.96,1.18,11.75,3.54,2.79,2.36,4.18,5.48,4.18,9.35,0,2.52-.51,4.75-1.54,6.69-1.03,1.94-3.1,3.64-6.22,5.11l7.92,19.08ZM118.53,47.54h5.74c1.69,0,3.05-.35,4.07-1.06,1.03-.71,1.54-1.74,1.54-3.11,0-2.8-1.72-4.2-5.16-4.2h-6.19v8.37Z"/>
      <path class="cls-1" d="M182.89,63.19v10.45h-32.93V29.87h32.93v10.1h-19.75v6.35h15.97v9.72h-15.97v7.15h19.75Z"/>
      <polygon class="cls-1" points="99.15 73.63 99.15 29.87 85.71 29.87 85.71 60.19 99.15 73.63"/>
      <polygon class="cls-1" points="48.34 29.87 58.76 40.29 61.19 40.29 79.76 40.29 79.76 29.87 48.34 29.87"/>
      <path class="cls-2" d="M32.38,29.87H0v43.77h41.07v-35.6l-8.69-8.17ZM33.39,68.25H7.95v-7.68l5.69-3.99c.83-.57,2.39-1.8,4.67-3.68,2.28-1.88,3.77-3.33,4.46-4.34.69-1.01,1.04-2.07,1.04-3.18s-.3-1.91-.91-2.56c-.61-.64-1.4-.97-2.38-.97-2.46,0-3.83,1.92-4.12,5.77l-8.44-1.64c.62-3.93,2.16-6.85,4.61-8.77,2.46-1.92,5.35-2.87,8.7-2.87,3.62,0,6.58.97,8.87,2.91,2.29,1.94,3.44,4.53,3.44,7.76,0,2.15-.62,4.2-1.87,6.14-1.25,1.94-4.9,4.91-10.95,8.91h13.02l-.37,8.2Z"/>
      <polygon class="cls-1" points="65.59 47.41 61.19 47.41 48.11 47.41 48.11 73.64 61.19 73.64 61.19 57.25 75.44 57.25 65.59 47.41"/>
    </g>
  </g>
</svg>